<svg xmlns="http://www.w3.org/2000/svg" viewBox="0 0 510 578" width="510" height="578">
  <circle cx="255" cy="289" r="240" fill="#A37343" />
  <path fill="#FFFFFF" fill-rule="evenodd" transform="translate(255, 289) scale(0.65) translate(-255, -289)" d="m254.3 0c1.3 0 3.8 1.6 5.8 3.7 2 2.1 6.2 7.8 9.5 12.8 3.2 4.9 7.5 12.4 9.5 16.5 2.1 4.1 4.7 11.2 5.8 15.7 1.6 6.2 2.1 11.4 2.1 20.5 0 8.7-0.6 14.5-1.9 19.8-1.1 4.1-1.7 7.7-1.4 8 0.2 0.3 3.7-1.2 7.6-3.3 4-2 10-5.5 13.4-7.7 3.8-2.4 7.4-5.7 9-8.3 2.1-3.2 2.8-5.8 3.1-11.2 0.3-3.9 1.1-8.2 1.8-9.8 0.8-1.5 2.3-3.2 3.4-3.7 1.1-0.6 3-1 4.2-1 1.3-0.1 3.4 0.8 4.8 1.8 1.6 1.3 3 3.8 3.8 7.3 1 3.9 1.2 10.4 0.9 22.9-0.2 9.6-1 22.7-1.6 29-0.7 6.3-2.3 14.6-3.6 18.5-1.2 3.8-3.5 9.7-5 13-1.4 3.3-4.3 8.2-6.2 11-2 2.7-6.1 7.6-9.2 10.8-3.1 3.2-9 8.4-13.1 11.5-4.1 3.2-9.8 7.9-12.8 10.7-3 2.7-6.9 7.5-8.7 10.5-1.7 3-4.6 9.5-6.3 14.5-1.8 5.2-3.6 13.5-4.4 19.7-0.7 5.9-1 10.9-0.6 11.2 0.5 0.3 3.8-2.1 7.5-5.5 3.8-3.3 7.7-6.5 8.8-7.1 1.1-0.6 2.8-0.8 3.7-0.4 1.3 0.4 1.6 1.1 0.9 2.3-0.4 1-6.6 7.6-13.8 14.8-7.1 7.1-17 16.9-22.1 21.7-5.1 4.9-9.7 8.8-10.2 8.8-0.6 0-1.7-1.7-2.6-3.8-0.8-2-3.2-6.1-5.2-9.1-2.5-3.7-8.5-9.4-18.6-17.5-8.2-6.7-16.4-13.9-18.2-16.1-1.8-2.2-5.6-7.8-8.6-12.5-2.9-4.7-6.5-12.1-7.9-16.5-1.5-4.4-3.2-10.1-3.8-12.8-0.6-2.6-1.1-9.8-1.1-16-0.1-10 0.2-11.4 4-15.2l4.1 2c2.3 1.1 4.9 3.1 5.9 4.5 0.9 1.4 2.1 3.8 2.7 5.5 0.6 1.6 1.6 6.4 2.3 10.5 0.6 4.1 2.2 10.6 3.4 14.5 1.2 3.8 4 9.7 6.1 12.9 2.2 3.3 5.8 7.5 8.1 9.5 2.2 2 7 5.4 10.5 7.5 3.5 2.2 9.5 6.5 13.4 9.6 3.8 3.2 7.7 6.5 8.5 7.4 0.8 0.9 1.9 1.7 2.5 1.7 0.6-0.1 0.8-2.7 0.3-7.3-0.3-4-1.4-10.9-2.3-15.3-0.9-4.4-2.6-10.5-3.8-13.5-1.1-3-4.2-8.7-6.8-12.5-3.1-4.6-7.1-8.8-11.6-12.1-3.7-2.9-10-7.9-13.8-11.1-3.9-3.2-9-8.4-11.5-11.5-2.5-3.1-6.4-8.9-8.7-12.9-2.4-4.1-5.4-10.6-6.7-14.4-1.3-3.9-2.9-10.5-3.5-14.8-0.6-4.2-1.1-20.1-1.1-62.7l2.7-2.5c1.6-1.5 4-2.6 5.5-2.5 1.7 0 3.8 1.1 5.3 2.7 1.9 2.1 2.6 3.9 2.5 6.8 0 2.2 0.7 6.5 1.5 9.5 0.9 3.5 2.7 6.7 4.8 8.9 1.7 1.8 5 4.5 7.2 5.9 2.2 1.5 6.2 3.9 9 5.4 2.7 1.6 6.5 3.6 8.2 4.6 1.8 0.9 3.4 1.5 3.7 1.2 0.2-0.3-0.4-3.9-1.5-8-1.3-5.3-1.9-11.1-1.9-19.5 0-8.2 0.6-14.4 1.8-19.5 1-4.1 3.9-11.8 6.4-17 2.6-5.2 6.8-12.7 9.4-16.5 2.6-3.9 6.5-9.1 8.6-11.8 2.5-2.9 4.8-4.7 6.1-4.7zm-9.8 46c-0.9 2.5-2.3 6.9-3.1 9.7-0.8 2.9-1.4 9.5-1.4 14.5 0 7.6 0.5 10.9 2.8 17.8 1.6 4.7 4.7 11.8 6.8 15.7 2.1 4 4.3 7.3 4.9 7.3 0.5 0 2.9-3.4 5.3-7.7 2.4-4.3 5.5-11.2 6.9-15.3 2.1-6.1 2.6-9.5 2.6-18 0.1-8.8-0.3-11.9-2.6-19-1.5-4.7-4.4-11.7-6.5-15.5-2.1-3.9-4.4-7.1-5.2-7.3-0.9-0.1-2.9 2.4-5.2 6.5-2 3.8-4.4 8.8-5.3 11.3zm251.2 3c1.8 0 4 0.3 4.9 0.7 0.9 0.5 2.3 2 3 3.5 0.8 1.6 1.4 3.8 1.4 5 0 1.3-1.5 4.1-3.3 6.3-1.8 2.2-11.7 12.3-22.1 22.5-10.3 10.2-118.3 117.9-239.9 239.4-121.7 121.4-222.6 221.7-224.2 222.7-1.7 1-4.6 1.9-6.5 1.9-2.4 0-4.2-0.7-5.6-2.2-1.2-1.3-2.5-3.4-2.9-4.8-0.4-1.4-0.2-3.6 0.4-5 0.6-1.4 106.1-107.1 234.3-235 128.3-127.9 237.1-236.3 241.8-241 4.7-4.7 10-9.7 11.9-11.3 2.2-1.7 4.6-2.7 6.8-2.7zm-202.7 65.7c-4.1 2.8-9.8 7.5-12.6 10.4-2.9 3.1-6.6 8.6-8.7 12.9-1.9 4.1-4.2 10.2-5.1 13.5-0.8 3.3-1.8 9.6-2.2 14-0.4 4.4-0.4 8.7 0.1 9.5 0.6 1.2 1.8 0.4 5.9-3.6 2.8-2.8 8.2-7.3 12.1-10.1 3.8-2.7 8.6-5.9 10.5-7.1 1.9-1.1 4.9-3.6 6.6-5.4 1.8-1.8 4.8-5.9 6.8-9.1 2-3.1 4.2-7.6 5-10 0.8-2.3 2.2-7.1 3.1-10.7 0.9-3.6 1.5-8.7 1.3-11.4-0.2-2.7-0.8-5.1-1.3-5.3-0.6-0.1-3.9 1.4-7.5 3.5-3.6 2.1-9.9 6.1-14 8.9zm-98.9 2c0.6 2.7 2.2 7.9 3.5 11.8 1.3 3.8 4.3 9.9 6.6 13.4 2.4 3.5 5.6 7.5 7.3 8.9 1.6 1.3 6.9 5 11.7 8.1 4.7 3.1 11.1 8 14.2 10.8 3.1 2.9 6.2 5.3 6.8 5.3 1 0 1.1-2.1 0.5-9.2-0.5-5.1-1.9-13-3.3-17.6-1.3-4.5-3.8-10.6-5.6-13.5-1.7-2.8-5.4-7.6-8.2-10.5-2.8-2.9-8.7-7.7-13.1-10.6-4.4-2.9-10.6-6.7-13.8-8.4-3.1-1.8-6.2-3.2-6.7-3.2-0.6 0-1 2.2-1 5 0 2.7 0.5 7.1 1.1 9.7zm138.1 43.3c1 0 2.2 0.9 2.8 2 0.5 1.1 1 6.3 1 21l-9.5 10.5c-6 6.7-10.2 10.5-11.5 10.5-1.1 0-2.2-0.5-2.5-1-0.3-0.6 0.4-4 1.4-7.8 1.1-3.7 2.4-9.9 3.1-13.7 0.6-3.9 1.8-8.6 2.6-10.5 0.9-1.9 2.1-4.4 2.7-5.5 0.7-1.1 2.8-2.8 4.7-3.7 1.9-1 4.3-1.8 5.2-1.8zm-154.5 70c0.5 0 2.7 1.3 5 3 2.4 1.6 5.1 4.7 6.2 6.7 1 2.1 2.1 6.7 2.4 10.3 0.3 3.6 1.1 9.4 1.6 13 0.7 4 2.7 9.7 5.3 14.9 3.5 6.7 5.8 9.8 19.7 22.6l-6.4 6.5c-6.3 6.4-6.5 6.5-9.1 5-1.4-0.8-4.9-4-7.8-7.1-2.8-3.1-6.5-7.6-8.3-10-1.7-2.4-4.5-7.6-6.1-11.4-1.7-3.9-4-10.8-5.1-15.5-1.6-6.4-2.1-11.6-2.1-21.3 0-11.4 0.2-12.9 2-14.7 1.1-1.1 2.3-2 2.7-2zm157 21c0.7 0 1.5 0.8 1.8 1.7 0.3 1 0.3 3.4 0 5.3-0.4 1.9-1.3 6.4-2.2 10-0.8 3.6-2.5 9.2-3.7 12.5-1.3 3.3-4 8.7-6.1 12-2.1 3.3-6.5 8.8-9.9 12.3-3.3 3.5-9 8.2-12.6 10.6-3.6 2.4-10.3 6.5-15 9-4.7 2.6-10.9 7-13.8 9.9-3 2.9-6.1 6.5-6.9 8.2-0.9 1.7-1.8 6.7-2.1 11.5-0.4 7.7-0.3 8.6 1.4 9.1 1 0.4 14.5 0 29.9-0.7 15.4-0.8 33.6-1.8 40.5-2.3 6.9-0.6 18.8-1.9 26.5-3 7.7-1.2 16.5-2.5 19.5-3 3-0.6 10-1.7 15.5-2.6 5.5-0.9 14.9-2.8 21-4.1 6-1.4 17.3-4.6 25-7.1 7.7-2.4 17.8-6.3 22.4-8.6 4.6-2.3 10.1-5.7 12.2-7.5 2.8-2.3 3.9-4 3.9-6 0-1.8-1.1-3.7-3.2-5.8-1.8-1.7-5.6-4.4-8.3-6-2.8-1.6-6.6-3.6-8.5-4.5-1.9-0.9-7.3-3-12-4.7-4.7-1.8-12.8-4.1-18-5.3-5.2-1.2-12.4-2.7-16-3.4-3.6-0.7-11.9-2.4-18.5-3.8-6.6-1.4-20.4-3.6-30.8-4.8-17.3-2.2-18.7-2.6-18.7-4.4 0-1.1 0.7-4.9 1.6-8.5 0.9-3.6 2.1-7 2.8-7.7 0.8-0.8 3-0.9 7.6-0.2 3.6 0.4 10.5 1.3 15.5 1.9 4.9 0.6 13.9 2 20 3.1 6 1.1 13 2.5 15.5 3 2.5 0.6 6.7 1.5 9.5 1.9 2.7 0.4 7.7 1.5 11 2.5 3.3 0.9 8 2 10.5 2.5 2.5 0.4 9.9 2.7 16.5 5 6.6 2.2 16.9 6.5 23 9.5 6 2.9 13.2 7 15.9 9.2 2.7 2.1 5.8 5.1 6.8 6.8 1 1.6 2.7 4.8 3.8 7 1.3 2.7 2 6.1 2 10.5 0 3.6-0.9 13-2 21-1.1 8-2.3 15.2-2.5 16-0.3 0.8-0.9 3.7-1.5 6.5-0.5 2.7-1.3 6.8-1.9 9-0.5 2.2-1.7 6.8-2.5 10.2-0.9 3.5-3 10-4.7 14.5-1.7 4.6-5.2 13.2-7.7 19.2-2.6 5.9-5.3 11.3-6 12-0.7 0.6-1.3 1.5-1.3 2.1 0 0.5-2.1 4.4-4.7 8.6-2.6 4.2-6.5 10.3-8.7 13.5-2.2 3.3-7.4 10.2-11.6 15.4-4.2 5.2-11.9 13.6-17.1 18.5-5.1 5-13.4 12.5-18.3 16.6-5 4.1-10.8 8.8-13 10.4-2.2 1.6-6.5 4.6-9.5 6.6-3 1.9-6.6 4.2-8 5.1-1.9 1.2-3.2 3.7-5.3 10.7-2.3 7.9-3.4 9.8-8 14.7-2.8 3.1-7.3 6.7-10 8-2.6 1.3-6.6 3.1-9 4-2.3 0.9-7.1 2.4-10.7 3.4-3.6 1.1-10.1 2.6-14.5 3.4-4.4 0.8-11.2 2-15 2.6-3.9 0.7-12.4 1.7-19 2.3-6.6 0.5-23.7 1-38 1.1-14.3 0-33.2-0.5-42-1.2-8.8-0.7-20.3-1.9-25.5-2.7-5.2-0.7-11.8-1.8-14.5-2.3-2.8-0.5-7.3-1.5-10-2.2-2.8-0.7-9.5-3-15-5.2-5.5-2.2-11.9-5.3-14.3-6.9-2.3-1.6-5.6-4.8-7.2-7.2-1.7-2.3-3.9-6.9-4.9-10.2-1.1-3.3-2.2-7.1-2.4-8.5-0.3-1.4-1.6-3.1-2.9-3.8-1.3-0.7-3.2-1.8-4.3-2.5-1.1-0.7-4.5-3-7.5-5-3-2.1-7.3-5.1-9.5-6.6-2.2-1.6-6.3-4.9-14-11.8l67.5-68.3c37.1-37.5 68.3-68.6 69.2-69.1 1-0.5 6.5-0.9 22.8-0.9l0.2-23.3 13.6-13.9c11-11.1 16.2-15.6 26.2-22.2 7.4-4.9 14.8-10.7 18-14.3 3-3.2 7-9 8.9-12.9 2.5-4.9 6-9.5 12.5-16.2 4.9-5 9.6-9.2 10.3-9.2zm-177.3 8.5l1.9 7.5c1.1 4.1 1.7 8.2 1.5 9-0.4 1.1-3.3 1.9-9.9 2.8-5.2 0.7-14.1 2-19.9 2.8-5.8 0.8-13.9 2.1-18 3-4.1 0.9-10.7 2.2-14.5 3-3.9 0.9-8.8 1.9-11 2.4-2.2 0.5-7.2 1.7-11 2.6-3.9 0.9-9.5 2.5-12.5 3.5-3 1-8.2 2.8-11.5 3.9-3.3 1.2-8.9 3.8-12.5 5.7-3.6 2-8 5-9.8 6.7-2 1.9-3.2 4.1-3.2 5.6 0 1.4 1.1 3.6 2.7 5.1 1.6 1.5 5.5 4.2 8.8 6 3.3 1.9 9.1 4.7 13 6.2 3.8 1.6 9.7 3.7 13 4.8 3.3 1.1 12.7 3.7 21 5.8 8.2 2.1 18.6 4.4 23 5.1 4.4 0.6 10.2 1.6 13 2.1 2.7 0.5 9.5 1.6 15 2.5 5.5 0.8 12.6 1.8 15.9 2.2 3.2 0.4 6 0.9 6.2 1.2 0.1 0.3-23.7 24.6-106.5 107.5l-2.2-2c-1.2-1.1-4.3-5.1-6.8-8.8-2.5-3.8-7.2-11.2-10.4-16.5-3.1-5.4-6.3-11.1-7.1-12.7-0.7-1.7-2.3-5-3.4-7.5-1.1-2.5-3.6-8.3-5.5-13-1.9-4.7-4.5-12.6-5.7-17.5-1.2-5-2.8-10.8-3.5-13-0.7-2.2-2.1-8.1-3-13-0.9-5-2.2-13.3-3-18.5-0.8-5.2-1.5-14.1-1.5-19.8 0-6.5 0.5-11.4 1.4-13.5 0.8-1.7 4.5-6.2 8.2-9.9 4.7-4.5 9.7-8.1 15.4-11 4.7-2.5 11.6-5.6 15.5-7.1 3.8-1.4 12.2-4.2 18.5-6.1 6.3-1.9 15.1-4.1 19.5-5 4.4-0.9 11.1-2.3 15-3.1 3.8-0.9 10.4-2.3 14.5-3.1 4.1-0.9 14.9-2.6 24-3.9 9.1-1.3 18.5-2.3 25.4-2z"/></svg>
